# xmcd
#
# Track frame offsets:
#	150
#	18968
#	40255
#	59328
#	80741
#	98398
#	117345
#	138110
#	153613
#	174504
#	205898
#
# Disc length: 3413 seconds
#
# Revision: 1
# Processed by: cddbd v1.5.2PL0 Copyright (c) Steve Scherf et al.
# Submitted via: audiograbber 1.83.01
#
DISCID=890d530b
DTITLE=Brad Paisley - CB_KGR13007
DYEAR=2010
DGENRE=
TTITLE0=Online
TTITLE1=He Didn't Have To Be
TTITLE2=When I Get Where I'm Goung
TTITLE3=Waitin' On A Woman
TTITLE4=We Danced
TTITLE5=Start A Band
TTITLE6=Letter To Me
TTITLE7=I'm Gonna Miss Her
TTITLE8=Water
TTITLE9=Anything Like Me
TTITLE10=Data Track
EXTD=
EXTT0=
EXTT1=
EXTT2=
EXTT3=
EXTT4=
EXTT5=
EXTT6=
EXTT7=
EXTT8=
EXTT9=
EXTT10=
PLAYORDER=
